<svg xmlns="http://www.w3.org/2000/svg" xmlns:xlink="http://www.w3.org/1999/xlink" viewBox="0 0 1297.87183 662.39136"><defs><style>.a{fill:#fff;}.a,.b,.d{fill-rule:evenodd;}.b,.e{fill:#2b2b2b;}.c{mask:url(#a);}.d,.f{fill:#128afa;}</style><mask id="a" x="582.08005" y="0" width="390.01374" height="662.39136" maskUnits="userSpaceOnUse"><polygon class="a" points="582.085 0 972.094 0 972.094 662.391 582.085 662.391 582.085 0"/></mask></defs><title>BlueArchive</title><path class="b" d="M657.806,293.86229a350.782,350.782,0,0,1-23.71225-27.33862c-15.75386-20.45194-29.09876-42.97092-36.40314-66.98944-3.70908-11.93482-5.73547-24.28815-5.066-36.27686a82.69792,82.69792,0,0,1,.89433-8.89719,72.17012,72.17012,0,0,1,2.10914-8.57876,59.84336,59.84336,0,0,1,7.42847-15.7941c3.00342-5.00964,7.11058-9.2695,11.38048-13.29828a82.97525,82.97525,0,0,1,14.645-10.21441c10.64129-5.73374,22.58529-9.44153,34.85489-11.74994,24.64792-4.61164,50.59073-3.84131,75.98813-.23108,50.981,7.43356,100.47064,25.8031,145.97976,50.69464,45.38507,25.10467,87.49793,57.019,120.82007,96.562a275.60215,275.60215,0,0,1,17.99762,24.10735h11.34728a277.52816,277.52816,0,0,0-21.51055-30.4522c-33.79529-41.31729-76.41986-74.56168-122.53384-100.97845-46.17859-26.35773-96.578-46.26532-149.8-55.05982-26.59677-4.00561-54.0542-5.41016-81.29977-.41595-13.5439,2.66015-27.03614,6.89178-39.52039,13.7399a98.5727,98.5727,0,0,0-17.50372,12.43551c-5.234,4.96085-10.24327,10.33768-13.98847,16.6055a74.77517,74.77517,0,0,0-8.7157,19.8588,87.00789,87.00789,0,0,0-2.2875,10.5354,97.63628,97.63628,0,0,0-.79613,10.63552c-.34375,14.21238,2.75786,27.94715,7.3096,40.80121,9.37734,25.75174,24.86238,48.11664,42.22136,68.186q10.08043,11.55477,21.12753,22.11584"/><g class="c"><path class="d" d="M972.09378,0c-28.017,57.84044-58.17189,114.41672-89.08213,170.55619-15.25215,28.18666-31.28023,55.91594-46.94605,83.86107l-48.15368,83.15448-49.32019,82.46072c-16.85291,27.24625-33.29725,54.734-50.5561,81.73871C653.95215,556.03752,619.09527,609.844,582.08005,662.39136c27.99136-57.85585,58.13594-114.44244,89.05132-170.57674,15.23929-28.19433,31.30081-55.90823,46.946-83.86106l48.182-83.1339,49.34846-82.44786c16.84005-27.25139,33.31011-54.72115,50.5561-81.73615C900.26536,106.37955,935.112,52.56026,972.09378,0"/></g><path class="d" d="M1091.83419,421.91618c-46.90754-24.04728-92.98768-49.4718-138.78-75.38193-22.9733-12.82661-45.65106-26.15167-68.465-39.24548L816.59176,267.2699,749.03883,226.493c-22.35917-13.8595-44.8725-27.45179-67.07751-41.57338C637.392,156.954,593.11815,128.495,549.67417,98.64077c46.91523,24.02931,93.00054,49.44868,138.7929,75.36653,22.9784,12.81889,45.64338,26.16451,68.465,39.24548l67.98968,40.03943L892.46185,294.087c22.36435,13.8518,44.87,27.46465,67.07241,41.57593,44.56936,27.96823,88.84576,56.42212,132.29993,86.2532"/><path class="e" d="M1239.2179,549.90535q0,.65186-.04687,1.62793a7.29338,7.29338,0,0,1-.23242,1.62695,13.76946,13.76946,0,0,1-4.46387,7.53321q-3.53468,3.16259-10.60156,4.79a86.37024,86.37024,0,0,1-18.69336,1.62695q-.09375.83789-.23242,1.81347a12.39607,12.39607,0,0,0-.13965,1.72071,6.533,6.533,0,0,0,2.18554,5.11523q2.18409,1.95264,8.69532,1.95313,2.79053,0,5.71972-.2793,2.9297-.27833,5.44043-.74414,2.51074-.46435,3.81348-.83691l-1.39551,9.48632a50.365,50.365,0,0,1-7.95117,1.627,93.40863,93.40863,0,0,1-13.15918.791q-9.022,0-12.834-3.67383-3.81445-3.67236-3.81348-10.74121a44.77319,44.77319,0,0,1,.37207-5.44043q.3706-3.022.92969-5.62695,2.51075-11.80957,9.2539-18.08789,6.74121-6.27832,19.11133-6.27832a27.83714,27.83714,0,0,1,10.64844,1.6748,11.88321,11.88321,0,0,1,5.67285,4.417A10.92557,10.92557,0,0,1,1239.2179,549.90535Zm-12.92675,1.6748a4.32137,4.32137,0,0,0-1.62793-3.30175q-1.62744-1.44141-5.44043-1.44141a10.64621,10.64621,0,0,0-5.998,1.62695,12.07839,12.07839,0,0,0-3.95313,4.3252,26.092,26.092,0,0,0-2.32421,5.76562,56.91805,56.91805,0,0,0,14.08886-1.3955Q1226.2892,555.76473,1226.29115,551.58015Z"/><path class="e" d="M1177.14337,539.02449h14.87989l-25.48242,47.61621h-18.042l-5.30078-47.61621h15.06641l1.67383,36.9209Z"/><path class="e" d="M1122.10853,539.02449h13.57812l-10.13671,47.61621h-13.57813ZM1139.965,523.587q0,4.46339-2.69726,6.69531a10.72678,10.72678,0,0,1-7.06836,2.23243q-3.627,0-5.11426-1.16211a4.151,4.151,0,0,1-1.48828-3.48829q0-4.46337,2.60352-6.74218a10.21672,10.21672,0,0,1,6.97558-2.27832q3.627,0,5.208,1.25586A4.20451,4.20451,0,0,1,1139.965,523.587Z"/><path class="e" d="M1106.76478,549.53328a39.44872,39.44872,0,0,1-.46484,5.67383q-.46583,3.1626-1.30176,7.06738l-5.208,24.36621H1086.212l5.208-24.36621a42.87938,42.87938,0,0,0,1.209-8.64844q0-3.25488-1.53418-4.37109-1.53516-1.11621-5.06836-1.11621a30.1558,30.1558,0,0,0-4.74317.418,22.76461,22.76461,0,0,0-3.627.791l-7.998,37.293h-13.57812l14.32226-67.332h13.57715l-4.27734,20.27441a14.03772,14.03772,0,0,1,2.65039-.74414q1.81347-.3706,4.0918-.65136a35.72417,35.72417,0,0,1,4.32422-.2793q8.83446,0,12.416,2.65137Q1106.76331,543.20955,1106.76478,549.53328Z"/><path class="e" d="M1055.89564,539.95515l-2.60449,9.48536a23.66949,23.66949,0,0,0-3.95215-.88379,32.07931,32.07931,0,0,0-4.97559-.418q-5.30127,0-8.37012,1.95312a12.32425,12.32425,0,0,0-4.60351,5.16114,35.95709,35.95709,0,0,0-2.46387,7.02148q-.37353,1.76806-.69824,3.7666a22.45141,22.45141,0,0,0-.3252,3.58106,8.09924,8.09924,0,0,0,1.999,5.76562q1.99951,2.14014,7.67285,2.13867a39.322,39.322,0,0,0,5.8125-.46484,25.62669,25.62669,0,0,0,4.88281-1.11621l-1.48828,9.5791a44.60762,44.60762,0,0,1-7.76562,1.7207,58.66953,58.66953,0,0,1-7.48633.51172q-9.85841,0-13.9502-3.7666-4.09277-3.76611-4.09179-11.11328a39.83933,39.83933,0,0,1,.37207-5.16211q.37061-2.83593.92968-5.44043,2.51075-12.18163,9.5791-18.27441,7.06641-6.08936,19.62305-6.0918a41.9214,41.9214,0,0,1,4.69629.2793,39.607,39.607,0,0,1,4.46387.74414A7.93448,7.93448,0,0,1,1055.89564,539.95515Z"/><path class="e" d="M1014.23158,538.46687l-2.79,10.04395a13.875,13.875,0,0,0-2.6045-.23242q-1.86182-.04542-3.71972-.04688a23.73434,23.73434,0,0,0-4.83594.46485q-2.23242.46728-3.25488.74414l-7.99805,37.20019H975.45033l9.67187-45.66308a52.82879,52.82879,0,0,1,5.11524-1.34864q3.15966-.69726,7.02148-1.209a59.22848,59.22848,0,0,1,7.76562-.51172q3.34717,0,5.90528.18652A25.44272,25.44272,0,0,1,1014.23158,538.46687Z"/><path class="e" d="M959.82826,523.40047l8.09082,63.24023H953.31751l-1.4873-15.15918H929.04505l-7.998,15.15918H906.72474l35.06152-63.24023Zm-25.8545,37.94433h17.29785l-2.88281-27.90039Z"/><path class="e" d="M909.422,549.90535q0,.65186-.04688,1.62793a7.29338,7.29338,0,0,1-.23242,1.62695,13.76946,13.76946,0,0,1-4.46387,7.53321q-3.53466,3.16259-10.60156,4.79a86.37024,86.37024,0,0,1-18.69336,1.62695q-.09375.83789-.23242,1.81347a12.39607,12.39607,0,0,0-.13965,1.72071,6.533,6.533,0,0,0,2.18555,5.11523q2.18408,1.95264,8.69531,1.95313,2.79053,0,5.71973-.2793,2.92968-.27833,5.44042-.74414,2.51074-.46435,3.81348-.83691l-1.39551,9.48632a50.36475,50.36475,0,0,1-7.95117,1.627,93.40863,93.40863,0,0,1-13.15918.791q-9.022,0-12.834-3.67383-3.81446-3.67236-3.81348-10.74121a44.77319,44.77319,0,0,1,.37207-5.44043q.37061-3.022.92969-5.62695,2.51075-11.80957,9.25391-18.08789,6.74121-6.27832,19.11132-6.27832a27.83714,27.83714,0,0,1,10.64844,1.6748,11.88317,11.88317,0,0,1,5.67285,4.417A10.92558,10.92558,0,0,1,909.422,549.90535Zm-12.92676,1.6748a4.32137,4.32137,0,0,0-1.62793-3.30175q-1.62744-1.44141-5.44043-1.44141a10.64621,10.64621,0,0,0-5.998,1.62695,12.07828,12.07828,0,0,0-3.95312,4.3252,26.09158,26.09158,0,0,0-2.32422,5.76562,56.918,56.918,0,0,0,14.08886-1.3955Q896.4933,555.76473,896.49525,551.58015Z"/><path class="e" d="M844.69544,539.02449h13.57813l-9.76563,45.66309a88.4813,88.4813,0,0,1-9.99707,2.09277,80.2071,80.2071,0,0,1-12.69433.97656,42.3661,42.3661,0,0,1-10.64844-1.06933,9.47665,9.47665,0,0,1-5.67285-3.627,12.056,12.056,0,0,1-1.72071-6.83593,35.80786,35.80786,0,0,1,.51172-5.67286q.50978-3.16113,1.34766-7.16113l5.208-24.36621H828.42l-5.208,24.36621q-.65185,2.88427-.97656,5.11524a26.91586,26.91586,0,0,0-.32519,3.8125q0,3.06884,1.53418,4.13867a8.906,8.906,0,0,0,4.97558,1.06933,25.93761,25.93761,0,0,0,4.27832-.37207q2.23242-.37061,3.999-.74414Z"/><path class="e" d="M793.546,519.30867h13.57715l-14.32129,67.332H779.22376Z"/><path class="e" d="M777.36341,534.74715a14.35893,14.35893,0,0,1-.18555,2.13867q-.1875,1.21-.37207,2.23144-2.41992,12.46436-16.46093,14.415,6.23.4673,9.34668,3.06934,3.11425,2.6045,3.11523,7.8125a18.29061,18.29061,0,0,1-.18555,2.46387q-.1875,1.34911-.46582,2.65039-1.48827,6.97559-5.626,10.69531a22.02543,22.02543,0,0,1-9.8584,5.06836,51.89189,51.89189,0,0,1-11.9502,1.34863H718.30872l13.48536-63.24023h26.31836a45.75064,45.75064,0,0,1,9.998.97656,13.58674,13.58674,0,0,1,6.78906,3.44141A9.37361,9.37361,0,0,1,777.36341,534.74715Zm-19.251,29.57324q0-3.5332-2.23145-4.78906a11.90775,11.90775,0,0,0-5.85938-1.25586H738.76869l-3.999,18.78613h9.67188q5.76563,0,8.835-1.81348,3.06885-1.81347,4.37109-7.39355A16.30372,16.30372,0,0,0,758.11244,564.32039Zm4.18554-26.41211a4.05764,4.05764,0,0,0-1.90625-3.8125,12.31849,12.31849,0,0,0-5.999-1.11621H744.06947l-3.34766,16.08887h10.69531q4.92774,0,7.34668-2.418a11.56643,11.56643,0,0,0,3.16211-5.8584,12.81543,12.81543,0,0,0,.2793-1.48828A11.55734,11.55734,0,0,0,762.298,537.90828Z"/><path class="e" d="M976.26569,397.88473l-8.722,32.55092h68.11918l-4.92467,18.37915c-2.80081,10.45276-13.545,18.9264-23.99772,18.9264H957.54771l-9.14059,32.61922h57.35661c26.16239,0,53.05408-21.2088,60.06427-47.37119l6.04321-22.55358h21.213l-18.73628,69.92477h32.55092l18.73628-69.92477h21.213l-5.44895,20.33578c-7.33839,27.38724,8.91442,49.589,36.30166,49.589h54.11378l8.74029-32.61922h-50.40137c-9.84423,0-15.68623-7.98032-13.04848-17.82455l5.21992-19.481h68.22592l8.722-32.55092Z"/><path class="e" d="M1202.18861,358.93334c-4.25462,12.57721-17.30675,23.73681-29.19742,30.05868h66.057l8.0542-30.05868Z"/><path class="e" d="M1178.19529,295.4007l-12.40173,46.28389c-2.44,9.10626-11.80012,16.48834-20.90638,16.48834h-138.5373l-8.536,31.857h142.08928c26.1123,0,52.95251-21.16821,59.94928-47.28051l12.687-47.34869Z"/><polygon class="e" points="999.422 309.971 990.766 342.274 1064.728 342.274 1061.625 353.852 1095.84 353.852 1098.943 342.274 1273.697 342.274 1282.353 309.971 1107.598 309.971 1111.502 295.401 1077.287 295.401 1073.383 309.971 999.422 309.971"/><polygon class="e" points="1144.722 232.879 1139.584 252.052 1015.596 252.052 1002.581 300.625 1036.667 300.625 1041.062 284.221 1255.166 284.221 1250.771 300.625 1284.857 300.625 1297.872 252.052 1173.457 252.052 1178.595 232.879 1144.722 232.879"/><polygon class="e" points="801.074 386.908 792.4 419.28 910.715 419.28 919.389 386.908 801.074 386.908"/><path class="e" d="M979.57252,234.51176l-10.24061,38.21848s-6.1522,22.32807-15.44046,36.6672H917.71339C930.39674,292.82069,935.475,271.9535,935.475,271.9535l10.03248-37.44175Z"/><path class="e" d="M836.29261,234.51176,826.052,272.73024s-5.81337,22.32807-4.20943,36.6672h35.08414c-3.30736-14.95161,3.39842-37.44394,3.39842-37.44394l10.03249-37.44175Z"/><path class="e" d="M891.36039,234.51176l-22.487,83.92254H807.71285L798.89178,351.355H921.08831s-20.47437,76.9535-24.66943,87.98562C891.38916,452.568,872.09449,467.354,856.78366,467.354H766.82572l-8.629,32.20386H855.436c33.27306,0,67.47363-26.97315,76.38912-60.24621l32.389-120.87736H903.64675l22.487-83.92254Z"/><polygon class="e" points="761.632 318.434 713.1 499.558 747.802 499.558 796.334 318.434 761.632 318.434"/><path class="e" d="M674.87658,318.4343l-37.57318,140.225S629.36477,485.64,617.137,499.55787h37.15189c8.35136-11.67553,18.54514-42.669,18.54514-42.669L709.93283,318.4343Z"/><polygon class="e" points="740.918 234.512 669.691 500.336 704.393 500.336 775.62 234.512 740.918 234.512"/><polygon class="e" points="688.255 268.506 679.431 301.437 800.888 301.437 809.712 268.506 688.255 268.506"/><polygon class="f" points="485.772 433.331 472.697 482.128 507.552 482.128 520.627 433.331 485.772 433.331"/><polygon class="f" points="421.29 433.331 408.215 482.128 442.78 482.128 455.855 433.331 421.29 433.331"/><path class="f" d="M406.60348,410.09472,397.88676,442.626h146.338c2.91654,0,4.64735,2.36432,3.86587,5.28087L537.598,487.066h34.85491l9.98664-37.27067c5.87506-21.926-7.13682-39.70059-29.06285-39.70059Z"/><polygon class="f" points="356.064 410.095 340.472 468.285 316.945 468.285 308.357 500.336 591.843 500.336 600.431 468.285 375.908 468.285 391.5 410.095 356.064 410.095"/><path class="f" d="M601.23027,359.50631l-8.78046,32.76913H511.93759s11.80613-23.00349,14.85686-32.76913Z"/><polygon class="f" points="514.534 308.074 505.812 340.626 611.277 340.626 619.999 308.074 514.534 308.074"/><path class="f" d="M498.74023,298.30581s-12.112,58.48053-44.102,104.237h39.38335c25.95712-35.09555,40.96545-104.237,40.96545-104.237Z"/><polygon class="f" points="436.557 298.306 408.627 402.543 444.063 402.543 471.993 298.306 436.557 298.306"/><polygon class="f" points="386.018 298.306 358.087 402.543 393.523 402.543 421.453 298.306 386.018 298.306"/><polygon class="f" points="552.719 234.295 536.24 295.794 571.489 295.794 587.968 234.295 552.719 234.295"/><polygon class="f" points="451.72 234.295 436.448 291.294 471.697 291.294 486.97 234.295 451.72 234.295"/><polygon class="f" points="374.17 249.061 365.411 281.751 649.05 281.751 657.81 249.061 374.17 249.061"/><polygon class="f" points="215.937 371.161 194.853 449.847 230.316 449.847 251.4 371.161 215.937 371.161"/><path class="f" d="M292.42749,293.0037l-7.42071,27.69447H220.50319L211.86135,352.95h64.50359l-28.9967,108.21716c-.84639,3.15874-5.187,7.11805-8.49641,7.11805H179.75l-8.58793,32.05059h61.13658c24.455,0,45.4197-22.91328,48.96586-36.14773L311.07067,352.95h14.72365l8.64184-32.2518H319.71251l7.42072-27.69447Z"/><path class="f" d="M166.44043,448.707l-6.616,24.69117s-3.98477,15.39132.20214,26.93758H129.69024s-1.6267-14.28213,1.71787-26.76423l6.66243-24.86452Z"/><path class="f" d="M62.96183,448.707l-6.616,24.69117s-4.26341,15.39132-14.63795,26.93758H72.04425s9.28047-14.28213,12.625-26.76423L91.33172,448.707Z"/><polygon class="f" points="72.708 412.335 64.521 442.888 99.074 442.888 83.681 500.336 117.507 500.336 132.9 442.888 169.999 442.888 178.185 412.335 72.708 412.335"/><polygon class="f" points="83.616 377.055 75.722 406.516 178.29 406.516 186.184 377.055 83.616 377.055"/><path class="f" d="M214.2583,294.21415,203.23885,335.3393c-6.21415,23.19155-33.73121,36.49692-47.79693,36.49692H78.26616L55.34588,457.37586c-6.11228,22.81136-18.73443,42.95991-18.73443,42.95991H0c14.38142-18.62863,21.13-42.95991,21.13-42.95991l43.719-163.16171ZM90.38844,326.59526l-3.56538,13.30617h73.45219c3.70588,0,8.65007-4.19757,9.53738-7.50906l1.55333-5.79711Z"/><polygon class="f" points="246.465 233.814 230.28 294.214 264.405 294.214 280.589 233.814 246.465 233.814"/><polygon class="f" points="145.465 233.814 130.103 291.143 164.228 291.143 179.589 233.814 145.465 233.814"/><polygon class="f" points="67.483 248.487 58.888 280.564 342.122 280.564 350.717 248.487 67.483 248.487"/></svg>